<svg width="64" height="64" viewBox="0 0 64 64" fill="none" xmlns="http://www.w3.org/2000/svg">
  <circle cx="32" cy="32" r="28" fill="#EEF2FF"/>
  <path d="M24 18h14l6 6v20c0 1.657-1.343 3-3 3H24c-1.657 0-3-1.343-3-3V21c0-1.657 1.343-3 3-3z"
        fill="#4F46E5"/>
  <path d="M38 18v6h6l-6-6z" fill="#A5B4FC"/>
  <path d="M30 26c0.7-0.3 1.5-0.3 2.2 0l4 2c0.6 0.3 1 0.9 1 1.5v4c0 3.4-2.1 6.6-5.5 8-3.4-1.4-5.5-4.6-5.5-8v-4c0-0.6 0.4-1.2 1-1.5l3.8-2z"
        fill="#EEF2FF"/>
  <path d="M32 30v5l2.2-1.3" stroke="#4F46E5" stroke-width="1.2" stroke-linecap="round" stroke-linejoin="round"/>
</svg>
