<svg width="320" height="80" viewBox="0 0 320 80" fill="none" xmlns="http://www.w3.org/2000/svg">
  <!-- Icon background circle -->
  <circle cx="40" cy="40" r="28" fill="#EEF2FF"/>
  
  <!-- Page + shield icon -->
  <!-- Page shape -->
  <path d="M30 24h16l6 6v22c0 1.657-1.343 3-3 3H30c-1.657 0-3-1.343-3-3V27c0-1.657 1.343-3 3-3z"
        fill="#4F46E5"/>
  <!-- Folded corner -->
  <path d="M46 24v6h6l-6-6z" fill="#A5B4FC"/>
  
  <!-- Shield overlay (haven / protection) -->
  <path d="M38 32c0.8-0.4 1.7-0.4 2.5 0l4.5 2.2c0.6 0.3 1 0.9 1 1.6v4.4c0 3.8-2.3 7.3-6 8.8-3.7-1.5-6-4.9-6-8.8v-4.4c0-0.7 0.4-1.3 1-1.6l4.5-2.2z"
        fill="#EEF2FF"/>
  <!-- Shield inner line -->
  <path d="M40 36v6l2.5-1.5" stroke="#4F46E5" stroke-width="1.2" stroke-linecap="round" stroke-linejoin="round"/>
  
  <!-- Brand text -->
  <text x="80" y="38" font-family="system-ui, -apple-system, BlinkMacSystemFont, 'SF Pro Text', sans-serif"
        font-size="20" font-weight="600" fill="#0F172A">
    pagehaven
  </text>
  <text x="80" y="56" font-family="system-ui, -apple-system, BlinkMacSystemFont, 'SF Pro Text', sans-serif"
        font-size="12" font-weight="500" fill="#6B7280">
    .dev
  </text>
</svg>
